<svg width="28" height="28" viewBox="0 0 28 28" fill="none" xmlns="http://www.w3.org/2000/svg">
<g id="Jesus/icon/social/instagram">
<path id="tbp_icon_social_instagram" fill-rule="evenodd" clip-rule="evenodd" d="M13.7999 0C10.1065 0 9.64295 0.0161495 8.19232 0.082164C6.74452 0.148462 5.75627 0.377671 4.89156 0.713977C3.9971 1.06133 3.23835 1.52598 2.48243 2.28218C1.72595 3.03808 1.26129 3.79683 0.912798 4.691C0.575638 5.55599 0.346143 6.5445 0.280978 7.99172C0.216096 9.44234 0.199097 9.90615 0.199097 13.5996C0.199097 17.293 0.21553 17.7551 0.281262 19.2057C0.347843 20.6535 0.577055 21.6417 0.913081 22.5064C1.26072 23.4009 1.72538 24.1596 2.48158 24.9155C3.23721 25.672 3.99596 26.1378 4.88986 26.4851C5.75514 26.8214 6.74367 27.0507 8.19119 27.117C9.64182 27.183 10.1051 27.1991 13.7982 27.1991C17.492 27.1991 17.9541 27.183 19.4047 27.117C20.8525 27.0507 21.8419 26.8214 22.7072 26.4851C23.6013 26.1378 24.359 25.672 25.1146 24.9155C25.8711 24.1596 26.3357 23.4009 26.6842 22.5067C27.0186 21.6417 27.2481 20.6532 27.316 19.206C27.3812 17.7554 27.3982 17.293 27.3982 13.5996C27.3982 9.90615 27.3812 9.44263 27.316 7.99201C27.2481 6.54422 27.0186 5.55599 26.6842 4.69128C26.3357 3.79683 25.8711 3.03808 25.1146 2.28218C24.3581 1.5257 23.6016 1.06105 22.7063 0.713977C21.8393 0.377671 20.8505 0.148462 19.4027 0.082164C17.9521 0.0161495 17.4903 0 13.7957 0H13.7999ZM12.5789 2.45096C12.8158 2.45059 13.0706 2.4507 13.3456 2.45082L13.7989 2.45096C17.43 2.45096 17.8604 2.46399 19.2943 2.52916C20.6203 2.58979 21.3399 2.81135 21.8193 2.99749C22.454 3.24398 22.9065 3.53864 23.3822 4.01462C23.8581 4.49061 24.1528 4.94393 24.3999 5.57857C24.586 6.05739 24.8079 6.77703 24.8682 8.10299C24.9334 9.53661 24.9475 9.96726 24.9475 13.5966C24.9475 17.226 24.9334 17.6567 24.8682 19.0903C24.8076 20.4163 24.586 21.1359 24.3999 21.6147C24.1534 22.2494 23.8581 22.7013 23.3822 23.177C22.9062 23.653 22.4543 23.9476 21.8193 24.1941C21.3405 24.3811 20.6203 24.6021 19.2943 24.6627C17.8607 24.7279 17.43 24.7421 13.7989 24.7421C10.1675 24.7421 9.73713 24.7279 8.30349 24.6627C6.97752 24.6015 6.25787 24.38 5.7782 24.1938C5.14354 23.9473 4.69022 23.6527 4.21423 23.1767C3.73824 22.7007 3.44358 22.2485 3.19652 21.6136C3.01037 21.1348 2.78853 20.4151 2.72818 19.0892C2.66302 17.6555 2.64998 17.2249 2.64998 13.5932C2.64998 9.9616 2.66302 9.53321 2.72818 8.09959C2.78881 6.77363 3.01037 6.05399 3.19652 5.57461C3.44302 4.93996 3.73824 4.48664 4.21423 4.01066C4.69022 3.53467 5.14354 3.24002 5.7782 2.99296C6.25759 2.80596 6.97752 2.58497 8.30349 2.52406C9.55806 2.46739 10.0443 2.45039 12.5789 2.44756V2.45096ZM19.4277 6.34043C19.4277 5.43918 20.1586 4.70905 21.0596 4.70905V4.70848C21.9606 4.70848 22.6916 5.43946 22.6916 6.34043C22.6916 7.2414 21.9606 7.97238 21.0596 7.97238C20.1586 7.97238 19.4277 7.2414 19.4277 6.34043ZM13.8003 6.61545C9.94347 6.6156 6.81654 9.74259 6.81654 13.5994C6.81654 17.4563 9.94362 20.5819 13.8006 20.5819C17.6575 20.5819 20.7834 17.4563 20.7834 13.5994C20.7834 9.7425 17.6572 6.61545 13.8003 6.61545ZM18.333 13.5992C18.333 11.0955 16.3033 9.06605 13.7998 9.06605C11.296 9.06605 9.26656 11.0955 9.26656 13.5992C9.26656 16.1027 11.296 18.1324 13.7998 18.1324C16.3033 18.1324 18.333 16.1027 18.333 13.5992Z" fill="#259B37"/>
</g>
</svg>
