<svg width="28" height="28" viewBox="0 0 28 28" fill="none" xmlns="http://www.w3.org/2000/svg">
<g id="Jesus/icon/social/twitter">
<path id="Shape" d="M13.605 8.34035L13.664 9.31255L12.6814 9.19351C9.10453 8.73717 5.97973 7.18959 3.32659 4.59044L2.0295 3.30079L1.6954 4.25315C0.987901 6.37611 1.43992 8.61812 2.91388 10.126C3.7 10.9593 3.52312 11.0784 2.16707 10.5824C1.6954 10.4236 1.28269 10.3046 1.24339 10.3641C1.10582 10.503 1.57749 12.3085 1.95089 13.0228C2.46187 14.0148 3.50347 14.987 4.64333 15.5624L5.60632 16.0187L4.46646 16.0386C3.3659 16.0386 3.32659 16.0584 3.44451 16.4751C3.83757 17.7647 5.39014 19.1337 7.11959 19.729L8.33807 20.1456L7.27682 20.7805C5.70459 21.6932 3.85722 22.2091 2.00985 22.2488C1.12547 22.2686 0.398315 22.348 0.398315 22.4075C0.398315 22.6059 2.79596 23.717 4.19132 24.1535C8.37738 25.4431 13.3496 24.8876 17.0836 22.6853C19.7367 21.1178 22.3899 18.0028 23.628 14.987C24.2962 13.3799 24.9644 10.4435 24.9644 9.03478C24.9644 8.1221 25.0233 8.00306 26.1239 6.91181C26.7725 6.27691 27.3817 5.58248 27.4996 5.38407C27.6961 5.0071 27.6765 5.0071 26.6742 5.34439C25.0037 5.93962 24.7679 5.86025 25.5933 4.96742C26.2025 4.33251 26.9297 3.18174 26.9297 2.84445C26.9297 2.78493 26.6349 2.88413 26.3008 3.0627C25.947 3.26111 25.1609 3.55872 24.5713 3.73729L23.5101 4.07458L22.5471 3.41983C22.0165 3.0627 21.2697 2.66588 20.8766 2.54684C19.8743 2.26907 18.3414 2.30875 17.4373 2.6262C14.9807 3.51904 13.4282 5.82057 13.605 8.34035Z" fill="#259B37"/>
</g>
</svg>
