<svg width="26" height="25" viewBox="0 0 26 25" fill="none" xmlns="http://www.w3.org/2000/svg">
<path id="Vector" d="M13.092 0C6.30135 0 0.796448 5.5049 0.796448 12.2956C0.796448 19.0862 6.30135 24.5911 13.092 24.5911C19.8827 24.5911 25.3876 19.0862 25.3876 12.2956C25.3876 5.5049 19.8827 0 13.092 0ZM18.7213 17.7533C18.5697 18.0053 18.3025 18.1448 18.0285 18.1448C17.8868 18.1448 17.7433 18.1075 17.6129 18.0291C12.7709 15.1166 7.03131 16.8012 6.97389 16.8185C6.54746 16.9473 6.09635 16.7066 5.96684 16.2803C5.83732 15.854 6.07697 15.4034 6.50311 15.2734C6.76493 15.1935 12.9747 13.3543 18.4454 16.6451C18.8278 16.8748 18.9512 17.3711 18.7213 17.7533ZM20.2482 14.3499C20.0717 14.657 19.7502 14.8288 19.4198 14.8288C19.2583 14.8288 19.0949 14.7878 18.9449 14.7016C12.8625 11.2038 6.73483 13.2401 6.6736 13.2609C6.17491 13.4318 5.63232 13.1662 5.4611 12.6677C5.29018 12.169 5.55582 11.6261 6.0545 11.4552C6.33776 11.3581 13.0712 9.12167 19.8966 13.0467C20.3536 13.3095 20.511 13.8929 20.2482 14.3499ZM20.9307 11.0659C20.7466 11.0659 20.5598 11.0226 20.3855 10.9309C13.3737 7.24823 6.17242 9.4531 6.10046 9.47586C5.48151 9.67131 4.82174 9.32784 4.62659 8.70919C4.43128 8.09053 4.77446 7.43061 5.39326 7.23531C5.72498 7.13061 13.6091 4.71796 21.478 8.85075C22.0525 9.15251 22.2735 9.86265 21.9718 10.437C21.7617 10.8373 21.3533 11.0659 20.9307 11.0659Z" fill="#259B37"/>
</svg>
