<svg width="28" height="28" viewBox="0 0 28 28" fill="none" xmlns="http://www.w3.org/2000/svg">
<g id="Jesus/icon/social/Youtube">
<path id="Subtract" fill-rule="evenodd" clip-rule="evenodd" d="M24.8234 4.8334C25.9937 5.15454 26.9154 6.1008 27.2282 7.30245C27.7966 9.48031 27.7966 14.0244 27.7966 14.0244C27.7966 14.0244 27.7966 18.5684 27.2282 20.7464C26.9154 21.9481 25.9937 22.8943 24.8234 23.2156C22.7025 23.7991 14.197 23.7991 14.197 23.7991C14.197 23.7991 5.69159 23.7991 3.57052 23.2156C2.40019 22.8943 1.47851 21.9481 1.16572 20.7464C0.597473 18.5684 0.597473 14.0244 0.597473 14.0244C0.597473 14.0244 0.597473 9.48031 1.16572 7.30245C1.47851 6.1008 2.40019 5.15454 3.57052 4.8334C5.69159 4.24976 14.197 4.24976 14.197 4.24976C14.197 4.24976 22.7025 4.24976 24.8234 4.8334ZM11.6471 10.1996V18.6993L18.4469 14.4496L11.6471 10.1996Z" fill="#259B37"/>
</g>
</svg>
